<svg xmlns="http://www.w3.org/2000/svg" viewBox="0 0 100 100" width="100" height="100">
  <!-- Background circle -->
  <circle cx="50" cy="50" r="45" fill="#1e40af" stroke="#3b82f6" stroke-width="2"/>
  
  <!-- Document icon -->
  <rect x="25" y="20" width="35" height="45" rx="2" fill="white"/>
  <rect x="30" y="30" width="25" height="2" fill="#1e40af"/>
  <rect x="30" y="36" width="20" height="2" fill="#1e40af"/>
  <rect x="30" y="42" width="25" height="2" fill="#1e40af"/>
  <rect x="30" y="48" width="15" height="2" fill="#1e40af"/>
  
  <!-- Search magnifying glass -->
  <circle cx="70" cy="65" r="8" fill="none" stroke="white" stroke-width="3"/>
  <line x1="76" y1="71" x2="82" y2="77" stroke="white" stroke-width="3" stroke-linecap="round"/>
  
  <!-- Rust gear overlay -->
  <g transform="translate(15,70)">
    <circle cx="10" cy="10" r="8" fill="#ce422b"/>
    <circle cx="10" cy="10" r="4" fill="white"/>
    <polygon points="10,2 12,6 16,6 13,9 14,13 10,11 6,13 7,9 4,6 8,6" fill="#ce422b"/>
  </g>
</svg>